<svg width="147" height="38" viewBox="0 0 147 38" fill="none" xmlns="http://www.w3.org/2000/svg">
<path d="M142.183 29.5206C141.929 29.5932 141.675 29.6294 141.385 29.6294C139.644 29.6294 137.722 28.2148 137.177 26.1472C136.887 25.0227 136.778 23.8982 136.778 22.7012C136.778 20.9238 136.996 19.1464 136.996 17.1877C136.996 16.8975 136.996 16.0995 136.815 15.4103C136.67 14.8662 136.452 14.4309 136.053 14.4309C135.799 14.4309 135.436 14.7936 135.074 15.4465C134.384 16.6436 133.586 18.6749 132.897 20.8513C131.882 24.0071 131.047 27.3805 131.047 28.6501V28.8677C130.685 28.9765 130.286 29.0491 129.85 29.0491C128.69 29.0491 127.456 28.5412 127.13 27.3079C127.057 26.9815 127.021 26.6187 127.021 26.1835C127.021 24.9139 127.275 23.1728 127.347 21.0689C127.384 20.2709 127.384 19.4003 127.384 18.6023C127.384 16.3896 127.239 14.5034 126.477 14.5034C125.715 14.5034 124.446 17.6592 123.394 21.1052C122.45 24.2247 121.689 27.5619 121.689 29.0128C121.507 29.0853 121.326 29.1216 121.072 29.1216C119.803 29.1216 117.771 28.106 117.662 26.7276C117.626 26.2197 117.59 25.4943 117.59 24.66C117.59 23.0277 117.662 20.9964 117.771 19.4366C117.88 17.4416 118.061 15.9544 118.061 14.4309C118.061 13.6691 118.025 12.9074 117.88 12.0731C118.098 12.0006 118.352 11.9643 118.605 11.9643C119.657 11.9643 120.927 12.5084 121.435 13.5966C121.652 14.0682 121.834 15.0838 121.834 16.4622C121.834 16.7887 121.834 17.1514 121.58 21.3591C121.689 20.8513 122.45 17.7318 123.43 15.2289C124.047 13.6329 124.772 11.6378 126.912 11.6378C128.508 11.6378 130.068 12.8349 130.648 14.2495C131.156 15.4828 131.265 16.8612 131.265 18.2033C131.265 19.0013 131.229 19.7631 131.192 20.8513C131.809 18.3847 132.571 16.6436 133.26 14.8299C133.877 13.1613 135.001 11.6016 136.633 11.6016C138.157 11.6016 140.152 12.4359 140.877 14.8299C141.059 15.5191 141.131 16.2446 141.131 17.0426C141.131 18.1308 141.022 19.2915 140.95 20.4885C140.914 21.214 140.769 22.7738 140.769 24.1884C140.769 25.5305 140.877 26.7638 141.385 27.0903C141.567 27.2354 141.748 27.2717 141.966 27.2717C142.51 27.2717 143.054 26.8364 143.562 26.2197C144.323 25.2766 144.976 23.9708 145.158 23.3179C145.557 23.3904 146.064 23.8982 146.064 24.8051C146.064 25.059 146.028 25.3129 145.956 25.6031C145.448 27.3805 143.562 29.1216 142.183 29.5206Z" fill="#8C2D37"/>
<path d="M110.419 26.5777C109.911 25.0542 109.875 23.7846 109.875 22.4062C109.875 20.6651 110.056 18.7426 110.201 16.7839C110.383 14.7526 110.637 12.6487 110.637 10.5448H110.927C111.943 10.5448 113.394 11.0527 114.192 12.7575C114.518 13.483 114.627 14.3173 114.627 15.2604C114.627 16.2035 114.518 17.2554 114.445 18.3799C114.3 20.2298 114.083 22.0798 114.083 24.0385C114.083 25.1268 114.119 26.1061 114.518 26.614C114.699 26.8679 114.99 26.9767 115.352 26.9767C115.715 26.9767 116.223 26.6502 116.586 26.2875C117.529 25.4169 118.254 23.8935 118.363 23.3856C118.798 23.3856 119.342 24.0023 119.342 24.6189C119.342 25.1993 119.088 26.0336 118.726 26.6865C117.71 28.5002 116.295 29.5521 114.736 29.5521C112.487 29.5521 110.963 28.1737 110.419 26.5777ZM112.088 3.50781C112.813 3.50781 113.647 3.798 114.373 4.26955C115.243 4.81365 115.896 5.64794 115.896 6.6636C115.896 7.67925 114.844 8.15081 113.865 8.15081C112.777 8.15081 111.544 7.57043 110.746 6.69987C110.274 6.15577 110.02 5.57539 110.02 5.06757C110.02 4.74111 110.129 4.45092 110.31 4.19701C110.637 3.76173 111.253 3.50781 112.088 3.50781Z" fill="#8C2D37"/>
<path d="M101.929 25.0199C101.929 26.5071 101.965 27.7767 102.074 29.1914C101.82 29.3365 101.53 29.3727 101.239 29.3727C100.079 29.3727 98.8455 28.3934 98.4827 27.414C98.0474 26.3258 97.9023 23.8229 97.9023 21.175C97.9023 19.6878 97.9386 17.6927 97.9749 16.2781C98.0112 15.1173 98.0474 14.0654 98.0474 13.2311C98.0474 12.4693 97.9749 11.889 97.9023 11.49C98.1563 11.4174 98.4102 11.3811 98.6641 11.3811C99.716 11.3811 100.659 12.0341 101.239 12.9772C101.965 14.0654 102.038 15.5526 102.038 17.0761V18.4907C102.364 17.4025 102.763 16.3869 103.126 15.6977C103.089 15.4438 103.053 15.1536 103.053 14.8997C103.053 14.5369 103.089 14.0654 103.198 13.5938C103.452 12.5419 103.851 11.7439 104.395 11.3086C104.613 11.1272 104.867 11.0547 105.157 11.0547C106.318 11.0547 107.878 12.288 107.878 13.7389C107.878 14.7183 106.39 16.4231 106.39 16.4231C106.39 16.4231 107.043 18.3094 108.784 18.6721C108.893 18.7084 109.038 18.7084 109.147 18.7084C110.308 18.7084 111.396 17.6927 111.686 16.532C112.303 16.6045 112.702 17.1486 112.702 18.0192C112.702 19.8691 110.997 20.9936 108.929 20.9936C106.898 20.9936 105.121 20.0142 104.141 18.527C103.67 19.2887 103.198 20.3044 102.799 21.3563C102.291 22.6622 101.929 24.0768 101.929 25.0199Z" fill="#8C2D37"/>
<path d="M87.8977 34.5233C89.0584 33.7253 89.4574 32.2018 89.6388 30.642L88.9859 30.9685C87.5349 31.694 86.1565 32.3106 85.4311 32.8547C85.1409 33.0724 84.8144 33.3626 84.8144 33.7616C84.8144 34.487 85.5036 35.0311 86.4104 35.0311C86.882 35.0311 87.3898 34.8498 87.8977 34.5233ZM98.5983 25.3824C97.6552 26.4343 95.8778 27.7039 93.8465 28.7196C93.5563 31.694 93.0485 34.1968 90.6907 35.9742C89.6751 36.736 88.2241 37.0624 86.8457 37.0624C83.9801 37.0624 81.1508 35.7203 81.1508 33.6527C81.1508 31.9479 83.835 30.7509 86.7006 29.5176C88.6957 28.6833 89.929 28.0666 89.929 28.0666C90.0741 26.3618 90.2554 23.3511 90.2554 22.1178C89.0584 25.3461 86.5193 27.5951 83.8713 27.5951C82.8919 27.5951 81.8037 27.3049 80.8243 26.5432C79.5185 25.6 78.5391 24.1854 77.8137 22.4443C76.9431 20.3767 76.5078 17.9101 76.5078 15.4072C76.5078 11.6348 77.5597 7.681 79.6999 4.77913C81.6224 2.13117 84.2703 1.04297 86.7369 1.04297C89.131 1.04297 90.6907 1.69589 92.5407 3.54583C93.3749 4.38012 93.919 5.79478 93.919 7.1369C93.919 8.08 93.6288 9.09566 92.8671 9.96622C92.2142 10.6917 91.3074 10.9819 90.5093 10.9819C89.53 10.9819 88.877 10.6191 88.478 10.075C89.131 9.16821 89.5662 7.681 89.5662 6.41143C89.5662 5.03304 88.9496 3.79975 87.7163 3.43701C87.4261 3.32819 87.0996 3.29192 86.8095 3.29192C85.3948 3.29192 84.1978 4.41639 83.2909 6.30261C82.1665 8.6241 81.5135 12.0701 81.5135 15.9513C81.5135 21.9364 83.2547 24.7658 85.3948 24.7658C86.6644 24.7658 88.0427 23.3148 89.0221 21.2835C89.7839 19.6875 90.2917 17.6562 90.2917 15.5886C90.2917 14.5729 92.323 13.1583 93.5563 13.1583C93.919 13.1583 94.318 13.3759 94.3543 13.8475C94.4269 14.7543 94.4269 16.169 94.4269 17.7287C94.4269 20.4855 94.318 23.7138 94.1004 25.7089C95.9503 24.5481 97.6189 23.3874 98.1993 22.6982C98.7797 23.0246 99.0699 23.5325 99.0699 24.1128C99.0699 24.5481 98.961 25.0197 98.5983 25.3824Z" fill="#8C2D37"/>
<path d="M73.8096 27.0886C73.991 27.1612 74.1361 27.2337 74.3174 27.2337C75.6233 27.2337 77.1105 24.6583 77.4369 23.425C77.8359 23.5338 78.3438 24.0054 78.3438 24.9485C78.3438 25.2024 78.3075 25.4563 78.2349 25.7465C77.6183 27.5602 75.8046 29.519 73.5557 29.519C72.6851 29.519 71.4518 29.0474 70.6901 28.467C70.1097 28.0317 69.6382 27.4514 69.4931 26.8347C69.1666 25.3838 69.0578 24.477 69.0578 23.5701C69.0578 23.0986 69.0941 22.627 69.1303 22.0466C69.1303 21.9015 69.1666 21.7565 69.1666 21.6114C68.6588 23.3525 66.9177 28.467 64.6324 29.265C64.306 29.3739 63.9795 29.4101 63.6893 29.4101C62.456 29.4101 61.259 28.5758 60.3884 27.1975C59.4091 25.674 58.7561 23.4613 58.6836 21.1398V20.7408C58.6836 17.0409 60.1708 12.5793 63.1815 11.3823C63.7981 11.1284 64.4511 11.0195 65.104 11.0195C66.8814 11.0195 68.6225 11.8901 69.7107 13.4498C69.7833 13.0508 69.8195 12.6881 69.8558 12.144C69.8921 11.7813 70.146 11.5999 70.545 11.5999C71.6695 11.5999 73.7008 12.9057 73.737 14.5018C73.737 14.8645 73.6645 15.7713 73.5557 16.8595C73.338 18.9271 73.0841 21.7202 73.0841 23.824C73.0841 25.5289 73.2655 26.8347 73.8096 27.0886ZM64.3785 26.2181C64.9226 26.2181 65.5755 25.4926 66.2285 24.3681C67.3892 22.3731 68.55 19.0359 69.2029 16.0978C69.0941 14.9371 68.1509 13.3048 66.9539 13.3048C66.5549 13.3048 66.1196 13.4861 65.6844 13.9214C64.1972 15.4812 63.3266 19.6526 63.3266 22.627C63.3266 24.477 63.8344 26.2181 64.3785 26.2181Z" fill="white"/>
<path d="M55.4796 29.5543C52.8679 29.5543 51.6346 27.9583 50.9817 26.0721C50.7277 25.3466 50.6552 24.0408 50.6552 22.1908C50.6552 20.0144 50.764 17.1851 50.9091 14.2832C50.9091 13.8842 50.9454 13.2676 50.9817 12.796C49.7121 12.7598 48.7327 12.6872 48.5513 12.6872C48.5513 12.6872 48.4062 12.2157 48.4062 11.7804C48.4062 11.4902 48.4788 11.2363 48.6964 11.1637C49.2043 11.0186 50.0386 10.9461 51.0179 10.9098C51.0542 9.93043 51.0542 9.13241 51.0542 7.93539C51.0542 6.19427 51.0542 5.14234 51.4169 4.01787C51.6346 3.80023 51.961 3.69141 52.3238 3.69141C53.3757 3.69141 54.7178 4.70706 55.2982 7.13738C55.3707 7.42756 55.407 8.08049 55.407 9.05987C55.407 9.60397 55.407 10.1843 55.3707 10.8373C56.0599 10.8373 56.6766 10.8735 57.257 10.8735C57.9461 10.8735 58.5265 10.8373 58.9255 10.7647C58.9981 10.9461 59.0344 11.1637 59.0344 11.3451C59.0344 11.9255 58.5991 12.3607 57.3658 12.5784C56.8217 12.6872 56.0599 12.7598 55.2256 12.796C55.1531 13.5215 55.0443 14.2832 54.8992 15.0087C54.5727 17.9106 54.3914 20.4134 54.3914 22.481C54.3914 24.8388 54.6815 26.5799 55.3345 27.0877C55.5884 27.3054 55.8786 27.3779 56.205 27.3779C57.656 27.3779 59.4696 25.4192 59.8324 23.3153C60.2314 23.3516 60.848 23.8231 60.848 24.8388C60.848 25.129 60.8117 25.4917 60.6304 25.9633C59.7235 28.3936 57.6922 29.5543 55.4796 29.5543Z" fill="white"/>
<path d="M39.4934 11.3477C39.9287 10.1144 41.3071 9.57031 42.8669 9.57031C43.1208 9.57031 44.1364 9.67913 44.8982 9.89677C45.406 10.0419 45.7687 10.3321 45.7687 10.6222C45.7687 11.0938 44.8982 11.2026 44.5354 11.6742C44.2452 12.0369 44.0639 12.6173 44.0639 13.1251C44.0639 13.4516 44.1364 13.778 44.3178 14.1045C44.9707 15.3015 45.7687 16.825 45.7687 16.825C46.8569 19.0014 48.054 21.0327 48.054 23.6807C48.054 24.6963 47.7638 26.0384 46.8569 27.7796C47.6549 27.308 48.199 27.0178 49.251 26.1835C50.2304 25.3855 50.8107 24.4787 51.2097 23.4267C51.6087 23.5718 52.2254 23.862 52.2254 24.8777C52.2254 26.1835 51.4636 27.1266 50.5205 27.8884C48.7069 29.3393 45.9138 30.1736 44.1002 30.1736C41.1257 30.1736 36.9906 29.303 35.5034 26.3286C35.2494 25.8208 35.1406 25.2404 35.1406 24.66C35.1406 23.6807 35.4671 22.7375 36.4827 22.3748C36.519 22.4474 36.5916 22.5562 36.7004 22.665C37.2082 21.5405 37.7523 20.1984 38.2239 18.6749C38.7317 17.0789 39.2032 15.3741 39.5297 13.7418C39.4209 13.2702 39.3483 12.7986 39.3483 12.3634C39.3483 12.0006 39.3846 11.6742 39.4934 11.3477ZM39.8924 20.7788C39.3121 22.4474 38.4052 24.1522 38.0788 25.2041C38.2601 25.9659 40.6542 27.5256 42.2139 27.5256C42.4679 27.5256 42.6855 27.4894 42.9031 27.3805C43.5198 27.0541 43.7374 26.3286 43.7374 25.4581C43.7374 23.8983 43.0482 21.8307 42.6129 20.7425C42.1414 19.5455 41.5973 18.3847 40.9806 17.2603C40.6542 18.421 40.2914 19.618 39.8924 20.7788Z" fill="white"/>
<path d="M33.8793 27.2315C34.2783 27.2315 34.7136 27.0139 35.1489 26.6511C36.0557 25.8894 36.9263 24.5473 37.1077 23.4228C37.543 23.4953 38.1233 24.0032 38.1233 24.91C38.1233 25.1276 38.0508 25.4541 37.942 25.7443C37.5792 26.7599 36.7449 27.957 35.693 28.755C35.0038 29.2991 34.2783 29.6255 33.698 29.6255C32.6823 29.6255 30.0706 29.1177 29.1275 26.2158C28.8373 25.2365 28.7285 24.1845 28.7285 23.1326C28.7285 21.7905 28.8736 20.3758 28.9824 18.9974C29.055 18.0181 29.2001 16.8573 29.2001 15.9142C29.2001 14.8623 29.0187 14.1005 28.4021 14.1005C28.0756 14.1005 27.604 14.6446 27.0962 15.5515C26.4433 16.7485 25.6816 18.5622 25.0286 20.4846C23.7953 23.9306 22.7434 27.7756 22.7434 28.8638V29.1177C22.7434 29.4804 22.562 29.6255 22.3081 29.6255C21.4738 29.6255 19.6964 28.0295 19.2974 25.5629C19.1886 24.9463 19.1523 24.3296 19.1523 23.713C19.1523 22.5522 19.2974 20.7023 19.4425 19.07C19.5876 17.0749 19.769 14.9711 19.769 13.4113C19.769 12.6496 19.7327 12.0329 19.6602 11.5251C19.8415 11.4888 20.0592 11.4526 20.2768 11.4526C21.365 11.4526 22.562 12.178 23.1424 13.5202C23.3601 13.9917 23.3963 14.8623 23.3963 15.8054C23.3963 17.8004 23.0336 20.1219 23.0336 21.3915C23.0336 21.3552 23.0699 21.3189 23.0699 21.2464C23.2512 20.5572 23.8679 18.1994 24.7747 15.9867C25.5365 14.1368 26.3345 12.432 27.0599 11.9241C27.604 11.5251 28.2207 11.3438 28.8736 11.3438C30.651 11.3438 32.5735 12.6859 33.0451 14.2093C33.2264 14.826 33.299 15.624 33.299 16.4946C33.299 17.8004 33.1539 19.2876 33.0451 20.5935C33.0088 21.2101 32.7911 22.9512 32.7911 24.4747C32.7911 25.6355 32.8274 27.2315 33.8793 27.2315Z" fill="white"/>
<path d="M6.74685 22.1541C4.64299 22.6619 3.77243 24.0766 3.77243 25.455C3.77243 27.1961 5.54983 28.6107 7.47232 28.6107C8.16151 28.6107 9.06835 28.3931 9.75754 27.9216C11.6438 26.652 12.1879 23.3874 12.4055 19.76C12.4418 19.2159 12.4418 18.5267 12.4418 17.8376C12.4418 16.7856 12.4055 15.2259 12.3692 13.9926C12.333 12.5054 12.2967 10.9456 12.2967 9.4584C12.2967 7.53591 12.4055 5.43205 12.8045 3.18311C10.7006 5.39578 8.12524 8.58784 8.12524 12.0701C8.12524 13.7387 9.32226 14.7906 10.1203 16.3866C10.2291 16.6043 10.2654 16.7856 10.2654 17.0033C10.2654 18.3091 8.56052 19.6512 7.79878 19.9777C6.23902 18.9983 4.57045 17.1846 4.57045 14.2828C4.57045 11.8162 5.62237 9.24076 6.92822 6.91926C8.34288 4.4164 10.0477 2.53018 11.1359 1.6959C11.9702 1.04298 13.3123 0.789062 14.5819 0.789062C16.1779 0.789062 17.7377 1.1518 17.7377 1.65962C17.7377 1.73217 17.7014 1.76844 17.6651 1.84099C16.7946 3.11056 16.5769 5.90361 16.5769 8.95057C16.5769 12.3603 16.8671 15.77 16.8671 19.4336C16.8671 23.3874 15.4887 26.8696 12.8045 29.1548C11.4261 30.3519 8.85071 31.1136 6.52921 31.1136C4.42535 31.1136 2.3215 30.497 1.05193 29.1186C0.290187 28.3206 0 27.3775 0 26.3981C0 23.8589 2.10386 21.2835 4.89691 21.2835C5.11455 21.2835 6.52921 21.3198 6.74685 22.1541Z" fill="white"/>
</svg>
