<svg width="259" height="65" viewBox="0 0 259 65" fill="none" xmlns="http://www.w3.org/2000/svg">
<path d="M12.256 37.76C8.544 38.656 7.008 41.152 7.008 43.584C7.008 46.656 10.144 49.152 13.536 49.152C14.752 49.152 16.352 48.768 17.568 47.936C20.896 45.696 21.856 39.936 22.24 33.536C22.304 32.576 22.304 31.36 22.304 30.144C22.304 28.288 22.24 25.536 22.176 23.36C22.112 20.736 22.048 17.984 22.048 15.36C22.048 11.968 22.24 8.256 22.944 4.288C19.232 8.192 14.688 13.824 14.688 19.968C14.688 22.912 16.8 24.768 18.208 27.584C18.4 27.968 18.464 28.288 18.464 28.672C18.464 30.976 15.456 33.344 14.112 33.92C11.36 32.192 8.416 28.992 8.416 23.872C8.416 19.52 10.272 14.976 12.576 10.88C15.072 6.464 18.08 3.136 20 1.664C21.472 0.511997 23.84 0.0639992 26.08 0.0639992C28.896 0.0639992 31.648 0.703999 31.648 1.6C31.648 1.728 31.584 1.792 31.52 1.92C29.984 4.16 29.6 9.088 29.6 14.464C29.6 20.48 30.112 26.496 30.112 32.96C30.112 39.936 27.68 46.08 22.944 50.112C20.512 52.224 15.968 53.568 11.872 53.568C8.16 53.568 4.448 52.48 2.208 50.048C0.864 48.64 0.352 46.976 0.352 45.248C0.352 40.768 4.064 36.224 8.992 36.224C9.376 36.224 11.872 36.288 12.256 37.76ZM60.1285 46.72C60.8325 46.72 61.6005 46.336 62.3685 45.696C63.9685 44.352 65.5045 41.984 65.8245 40C66.5925 40.128 67.6165 41.024 67.6165 42.624C67.6165 43.008 67.4885 43.584 67.2965 44.096C66.6565 45.888 65.1845 48 63.3285 49.408C62.1125 50.368 60.8325 50.944 59.8085 50.944C58.0165 50.944 53.4085 50.048 51.7445 44.928C51.2325 43.2 51.0405 41.344 51.0405 39.488C51.0405 37.12 51.2965 34.624 51.4885 32.192C51.6165 30.464 51.8725 28.416 51.8725 26.752C51.8725 24.896 51.5525 23.552 50.4645 23.552C49.8885 23.552 49.0565 24.512 48.1605 26.112C47.0085 28.224 45.6645 31.424 44.5125 34.816C42.3365 40.896 40.4805 47.68 40.4805 49.6V50.048C40.4805 50.688 40.1605 50.944 39.7125 50.944C38.2405 50.944 35.1045 48.128 34.4005 43.776C34.2085 42.688 34.1445 41.6 34.1445 40.512C34.1445 38.464 34.4005 35.2 34.6565 32.32C34.9125 28.8 35.2325 25.088 35.2325 22.336C35.2325 20.992 35.1685 19.904 35.0405 19.008C35.3605 18.944 35.7445 18.88 36.1285 18.88C38.0485 18.88 40.1605 20.16 41.1845 22.528C41.5685 23.36 41.6325 24.896 41.6325 26.56C41.6325 30.08 40.9925 34.176 40.9925 36.416C40.9925 36.352 41.0565 36.288 41.0565 36.16C41.3765 34.944 42.4645 30.784 44.0645 26.88C45.4085 23.616 46.8165 20.608 48.0965 19.712C49.0565 19.008 50.1445 18.688 51.2965 18.688C54.4325 18.688 57.8245 21.056 58.6565 23.744C58.9765 24.832 59.1045 26.24 59.1045 27.776C59.1045 30.08 58.8485 32.704 58.6565 35.008C58.5925 36.096 58.2085 39.168 58.2085 41.856C58.2085 43.904 58.2725 46.72 60.1285 46.72ZM70.0325 18.688C70.8005 16.512 73.2325 15.552 75.9845 15.552C76.4325 15.552 78.2245 15.744 79.5685 16.128C80.4645 16.384 81.1045 16.896 81.1045 17.408C81.1045 18.24 79.5685 18.432 78.9285 19.264C78.4165 19.904 78.0965 20.928 78.0965 21.824C78.0965 22.4 78.2245 22.976 78.5445 23.552C79.6965 25.664 81.1045 28.352 81.1045 28.352C83.0245 32.192 85.1365 35.776 85.1365 40.448C85.1365 42.24 84.6245 44.608 83.0245 47.68C84.4325 46.848 85.3925 46.336 87.2485 44.864C88.9765 43.456 90.0005 41.856 90.7045 40C91.4085 40.256 92.4965 40.768 92.4965 42.56C92.4965 44.864 91.1525 46.528 89.4885 47.872C86.2885 50.432 81.3605 51.904 78.1605 51.904C72.9125 51.904 65.6165 50.368 62.9925 45.12C62.5445 44.224 62.3525 43.2 62.3525 42.176C62.3525 40.448 62.9285 38.784 64.7205 38.144C64.7845 38.272 64.9125 38.464 65.1045 38.656C66.0005 36.672 66.9605 34.304 67.7925 31.616C68.6885 28.8 69.5205 25.792 70.0965 22.912C69.9045 22.08 69.7765 21.248 69.7765 20.48C69.7765 19.84 69.8405 19.264 70.0325 18.688ZM70.7365 35.328C69.7125 38.272 68.1125 41.28 67.5365 43.136C67.8565 44.48 72.0805 47.232 74.8325 47.232C75.2805 47.232 75.6645 47.168 76.0485 46.976C77.1365 46.4 77.5205 45.12 77.5205 43.584C77.5205 40.832 76.3045 37.184 75.5365 35.264C74.7045 33.152 73.7445 31.104 72.6565 29.12C72.0805 31.168 71.4405 33.28 70.7365 35.328ZM98.2385 50.816C93.6305 50.816 91.4545 48 90.3025 44.672C89.8545 43.392 89.7265 41.088 89.7265 37.824C89.7265 33.984 89.9185 28.992 90.1745 23.872C90.1745 23.168 90.2385 22.08 90.3025 21.248C88.0625 21.184 86.3345 21.056 86.0145 21.056C86.0145 21.056 85.7585 20.224 85.7585 19.456C85.7585 18.944 85.8865 18.496 86.2705 18.368C87.1665 18.112 88.6385 17.984 90.3665 17.92C90.4305 16.192 90.4305 14.784 90.4305 12.672C90.4305 9.6 90.4305 7.744 91.0705 5.76C91.4545 5.376 92.0305 5.184 92.6705 5.184C94.5265 5.184 96.8945 6.976 97.9185 11.264C98.0465 11.776 98.1105 12.928 98.1105 14.656C98.1105 15.616 98.1105 16.64 98.0465 17.792C99.2625 17.792 100.351 17.856 101.375 17.856C102.591 17.856 103.615 17.792 104.319 17.664C104.447 17.984 104.51 18.368 104.51 18.688C104.51 19.712 103.743 20.48 101.567 20.864C100.607 21.056 99.2625 21.184 97.7905 21.248C97.6625 22.528 97.4705 23.872 97.2145 25.152C96.6385 30.272 96.3185 34.688 96.3185 38.336C96.3185 42.496 96.8305 45.568 97.9825 46.464C98.4305 46.848 98.9425 46.976 99.5185 46.976C102.079 46.976 105.279 43.52 105.919 39.808C106.623 39.872 107.711 40.704 107.711 42.496C107.711 43.008 107.647 43.648 107.327 44.48C105.727 48.768 102.143 50.816 98.2385 50.816ZM130.578 46.464C130.898 46.592 131.154 46.72 131.474 46.72C133.778 46.72 136.402 42.176 136.978 40C137.682 40.192 138.578 41.024 138.578 42.688C138.578 43.136 138.514 43.584 138.386 44.096C137.298 47.296 134.098 50.752 130.13 50.752C128.594 50.752 126.418 49.92 125.074 48.896C124.05 48.128 123.218 47.104 122.962 46.016C122.386 43.456 122.194 41.856 122.194 40.256C122.194 39.424 122.258 38.592 122.322 37.568C122.322 37.312 122.386 37.056 122.386 36.8C121.49 39.872 118.418 48.896 114.386 50.304C113.81 50.496 113.234 50.56 112.722 50.56C110.546 50.56 108.434 49.088 106.898 46.656C105.17 43.968 104.018 40.064 103.89 35.968V35.264C103.89 28.736 106.514 20.864 111.826 18.752C112.914 18.304 114.066 18.112 115.218 18.112C118.354 18.112 121.426 19.648 123.346 22.4C123.474 21.696 123.538 21.056 123.602 20.096C123.666 19.456 124.114 19.136 124.818 19.136C126.802 19.136 130.386 21.44 130.45 24.256C130.45 24.896 130.322 26.496 130.13 28.416C129.746 32.064 129.298 36.992 129.298 40.704C129.298 43.712 129.618 46.016 130.578 46.464ZM113.938 44.928C114.898 44.928 116.05 43.648 117.202 41.664C119.25 38.144 121.298 32.256 122.45 27.072C122.258 25.024 120.594 22.144 118.482 22.144C117.778 22.144 117.01 22.464 116.242 23.232C113.618 25.984 112.082 33.344 112.082 38.592C112.082 41.856 112.978 44.928 113.938 44.928ZM155.434 59.584C157.482 58.176 158.186 55.488 158.506 52.736L157.354 53.312C154.794 54.592 152.362 55.68 151.082 56.64C150.57 57.024 149.994 57.536 149.994 58.24C149.994 59.52 151.21 60.48 152.81 60.48C153.642 60.48 154.538 60.16 155.434 59.584ZM174.314 43.456C172.65 45.312 169.514 47.552 165.93 49.344C165.418 54.592 164.522 59.008 160.362 62.144C158.57 63.488 156.01 64.064 153.578 64.064C148.522 64.064 143.53 61.696 143.53 58.048C143.53 55.04 148.266 52.928 153.322 50.752C156.842 49.28 159.018 48.192 159.018 48.192C159.274 45.184 159.594 39.872 159.594 37.696C157.482 43.392 153.002 47.36 148.33 47.36C146.602 47.36 144.682 46.848 142.954 45.504C140.65 43.84 138.922 41.344 137.642 38.272C136.106 34.624 135.338 30.272 135.338 25.856C135.338 19.2 137.194 12.224 140.97 7.104C144.362 2.432 149.034 0.511997 153.386 0.511997C157.61 0.511997 160.362 1.664 163.626 4.928C165.098 6.4 166.058 8.896 166.058 11.264C166.058 12.928 165.546 14.72 164.202 16.256C163.05 17.536 161.45 18.048 160.042 18.048C158.314 18.048 157.162 17.408 156.458 16.448C157.61 14.848 158.378 12.224 158.378 9.984C158.378 7.552 157.29 5.376 155.114 4.736C154.602 4.544 154.026 4.48 153.514 4.48C151.018 4.48 148.906 6.464 147.306 9.792C145.322 13.888 144.17 19.968 144.17 26.816C144.17 37.376 147.242 42.368 151.018 42.368C153.258 42.368 155.69 39.808 157.418 36.224C158.762 33.408 159.658 29.824 159.658 26.176C159.658 24.384 163.242 21.888 165.418 21.888C166.058 21.888 166.762 22.272 166.826 23.104C166.954 24.704 166.954 27.2 166.954 29.952C166.954 34.816 166.762 40.512 166.378 44.032C169.642 41.984 172.586 39.936 173.61 38.72C174.634 39.296 175.146 40.192 175.146 41.216C175.146 41.984 174.954 42.816 174.314 43.456ZM180.194 42.816C180.194 45.44 180.258 47.68 180.45 50.176C180.002 50.432 179.49 50.496 178.978 50.496C176.93 50.496 174.754 48.768 174.114 47.04C173.346 45.12 173.09 40.704 173.09 36.032C173.09 33.408 173.154 29.888 173.218 27.392C173.282 25.344 173.346 23.488 173.346 22.016C173.346 20.672 173.218 19.648 173.09 18.944C173.538 18.816 173.986 18.752 174.434 18.752C176.29 18.752 177.954 19.904 178.978 21.568C180.258 23.488 180.385 26.112 180.385 28.8V31.296C180.962 29.376 181.666 27.584 182.306 26.368C182.242 25.92 182.178 25.408 182.178 24.96C182.178 24.32 182.242 23.488 182.434 22.656C182.882 20.8 183.586 19.392 184.546 18.624C184.93 18.304 185.378 18.176 185.89 18.176C187.938 18.176 190.69 20.352 190.69 22.912C190.69 24.64 188.066 27.648 188.066 27.648C188.066 27.648 189.218 30.976 192.29 31.616C192.482 31.68 192.738 31.68 192.93 31.68C194.978 31.68 196.898 29.888 197.41 27.84C198.498 27.968 199.202 28.928 199.202 30.464C199.202 33.728 196.194 35.712 192.546 35.712C188.962 35.712 185.826 33.984 184.098 31.36C183.266 32.704 182.434 34.496 181.73 36.352C180.834 38.656 180.194 41.152 180.194 42.816ZM195.173 45.568C194.277 42.88 194.213 40.64 194.213 38.208C194.213 35.136 194.533 31.744 194.789 28.288C195.109 24.704 195.557 20.992 195.557 17.28H196.069C197.861 17.28 200.421 18.176 201.829 21.184C202.405 22.464 202.597 23.936 202.597 25.6C202.597 27.264 202.405 29.12 202.277 31.104C202.021 34.368 201.637 37.632 201.637 41.088C201.637 43.008 201.701 44.736 202.405 45.632C202.725 46.08 203.237 46.272 203.877 46.272C204.517 46.272 205.413 45.696 206.053 45.056C207.717 43.52 208.997 40.832 209.189 39.936C209.957 39.936 210.917 41.024 210.917 42.112C210.917 43.136 210.469 44.608 209.829 45.76C208.037 48.96 205.541 50.816 202.789 50.816C198.821 50.816 196.133 48.384 195.173 45.568ZM198.117 4.864C199.397 4.864 200.869 5.376 202.149 6.208C203.685 7.168 204.837 8.64 204.837 10.432C204.837 12.224 202.981 13.056 201.253 13.056C199.333 13.056 197.157 12.032 195.749 10.496C194.917 9.536 194.469 8.512 194.469 7.616C194.469 7.04 194.661 6.528 194.981 6.08C195.557 5.312 196.645 4.864 198.117 4.864ZM251.218 50.752C250.77 50.88 250.322 50.944 249.81 50.944C246.738 50.944 243.346 48.448 242.386 44.8C241.874 42.816 241.682 40.832 241.682 38.72C241.682 35.584 242.066 32.448 242.066 28.992C242.066 28.48 242.066 27.072 241.746 25.856C241.49 24.896 241.106 24.128 240.402 24.128C239.954 24.128 239.314 24.768 238.674 25.92C237.458 28.032 236.05 31.616 234.834 35.456C233.042 41.024 231.57 46.976 231.57 49.216V49.6C230.93 49.792 230.226 49.92 229.458 49.92C227.41 49.92 225.234 49.024 224.658 46.848C224.53 46.272 224.466 45.632 224.466 44.864C224.466 42.624 224.914 39.552 225.042 35.84C225.106 34.432 225.106 32.896 225.106 31.488C225.106 27.584 224.85 24.256 223.506 24.256C222.162 24.256 219.922 29.824 218.066 35.904C216.402 41.408 215.058 47.296 215.058 49.856C214.738 49.984 214.418 50.048 213.97 50.048C211.73 50.048 208.146 48.256 207.954 45.824C207.89 44.928 207.826 43.648 207.826 42.176C207.826 39.296 207.954 35.712 208.146 32.96C208.338 29.44 208.658 26.816 208.658 24.128C208.658 22.784 208.594 21.44 208.338 19.968C208.722 19.84 209.17 19.776 209.618 19.776C211.474 19.776 213.714 20.736 214.61 22.656C214.994 23.488 215.314 25.28 215.314 27.712C215.314 28.288 215.314 28.928 214.866 36.352C215.058 35.456 216.402 29.952 218.13 25.536C219.218 22.72 220.498 19.2 224.274 19.2C227.09 19.2 229.842 21.312 230.866 23.808C231.762 25.984 231.954 28.416 231.954 30.784C231.954 32.192 231.89 33.536 231.826 35.456C232.914 31.104 234.258 28.032 235.474 24.832C236.562 21.888 238.546 19.136 241.426 19.136C244.114 19.136 247.634 20.608 248.914 24.832C249.234 26.048 249.362 27.328 249.362 28.736C249.362 30.656 249.17 32.704 249.042 34.816C248.978 36.096 248.722 38.848 248.722 41.344C248.722 43.712 248.914 45.888 249.81 46.464C250.13 46.72 250.45 46.784 250.834 46.784C251.794 46.784 252.754 46.016 253.65 44.928C254.994 43.264 256.146 40.96 256.466 39.808C257.17 39.936 258.066 40.832 258.066 42.432C258.066 42.88 258.002 43.328 257.874 43.84C256.978 46.976 253.65 50.048 251.218 50.752Z" fill="white"/>
</svg>
