<svg width="211" height="56" viewBox="0 0 211 56" fill="none" xmlns="http://www.w3.org/2000/svg">
<path d="M105.657 37.6476C105.917 37.7514 106.124 37.8553 106.384 37.8553C108.253 37.8553 110.382 34.1686 110.849 32.4031C111.421 32.5589 112.148 33.2339 112.148 34.584C112.148 34.9475 112.096 35.3109 111.992 35.7263C111.109 38.3226 108.513 41.1266 105.293 41.1266C104.047 41.1266 102.282 40.4516 101.191 39.6208C100.36 38.9977 99.6855 38.1669 99.4778 37.2841C99.0104 35.2071 98.8546 33.909 98.8546 32.6108C98.8546 31.9358 98.9066 31.2607 98.9585 30.4299C98.9585 30.2222 99.0104 30.0145 99.0104 29.8068C98.2835 32.2993 95.791 39.6208 92.5197 40.7631C92.0524 40.9189 91.5851 40.9708 91.1696 40.9708C89.4042 40.9708 87.6906 39.7766 86.4444 37.8034C85.0424 35.6225 84.1078 32.455 84.0039 29.1318V28.5606C84.0039 23.2642 86.1329 16.8773 90.4427 15.1638C91.3254 14.8003 92.2601 14.6445 93.1947 14.6445C95.7391 14.6445 98.2315 15.8907 99.7893 18.1236C99.8932 17.5524 99.9451 17.0331 99.997 16.2542C100.049 15.735 100.412 15.4753 100.984 15.4753C102.593 15.4753 105.501 17.3447 105.553 19.6294C105.553 20.1486 105.449 21.4468 105.293 23.0046C104.982 25.9643 104.618 29.9626 104.618 32.9743C104.618 35.4148 104.878 37.2841 105.657 37.6476ZM92.1562 36.4014C92.9351 36.4014 93.8698 35.3629 94.8044 33.7532C96.4661 30.8973 98.1277 26.1201 99.0623 21.9141C98.9066 20.2525 97.5565 17.9158 95.843 17.9158C95.2718 17.9158 94.6487 18.1755 94.0256 18.7986C91.8966 21.0314 90.6504 27.0028 90.6504 31.2607C90.6504 33.909 91.3774 36.4014 92.1562 36.4014Z" fill="#312F3E"/>
<path d="M79.4185 41.1792C75.6798 41.1792 73.9144 38.8945 72.9797 36.1944C72.6162 35.1559 72.5124 33.2865 72.5124 30.6383C72.5124 27.5228 72.6681 23.4726 72.8758 19.3185C72.8758 18.7474 72.9278 17.8646 72.9797 17.1896C71.1623 17.1377 69.7603 17.0338 69.5007 17.0338C69.5007 17.0338 69.293 16.3588 69.293 15.7357C69.293 15.3203 69.3968 14.9568 69.7084 14.8529C70.4353 14.6452 71.6296 14.5414 73.0316 14.4895C73.0835 13.0875 73.0835 11.9451 73.0835 10.2316C73.0835 7.73912 73.0835 6.23328 73.6028 4.62358C73.9144 4.31203 74.3817 4.15625 74.9009 4.15625C76.4068 4.15625 78.328 5.61017 79.1588 9.08919C79.2627 9.50459 79.3146 10.4393 79.3146 11.8412C79.3146 12.6201 79.3146 13.4509 79.2627 14.3856C80.2493 14.3856 81.132 14.4375 81.9628 14.4375C82.9494 14.4375 83.7802 14.3856 84.3514 14.2818C84.4553 14.5414 84.5072 14.8529 84.5072 15.1126C84.5072 15.9434 83.8841 16.5665 82.1186 16.878C81.3397 17.0338 80.2493 17.1377 79.055 17.1896C78.9511 18.2281 78.7954 19.3185 78.5877 20.3571C78.1203 24.5111 77.8607 28.094 77.8607 31.0537C77.8607 34.4289 78.2761 36.9213 79.2108 37.6483C79.5742 37.9599 79.9897 38.0637 80.457 38.0637C82.534 38.0637 85.1303 35.2597 85.6496 32.248C86.2207 32.3 87.1035 32.975 87.1035 34.4289C87.1035 34.8443 87.0515 35.3636 86.7919 36.0386C85.4938 39.5176 82.5859 41.1792 79.4185 41.1792Z" fill="#312F3E"/>
<path d="M56.5358 15.1108C57.1589 13.3453 59.132 12.5664 61.3649 12.5664C61.7283 12.5664 63.1822 12.7222 64.2727 13.0337C64.9996 13.2414 65.5189 13.6568 65.5189 14.0722C65.5189 14.7473 64.2727 14.9031 63.7534 15.5781C63.338 16.0974 63.0784 16.9282 63.0784 17.6551C63.0784 18.1225 63.1823 18.5898 63.4419 19.0571C64.3765 20.7707 65.5189 22.9515 65.5189 22.9515C67.0767 26.0671 68.7902 28.9749 68.7902 32.7655C68.7902 34.2194 68.3748 36.1407 67.0767 38.6331C68.219 37.9581 68.9979 37.5426 70.5038 36.3484C71.9058 35.206 72.7366 33.9079 73.3078 32.402C73.8789 32.6097 74.7617 33.0251 74.7617 34.479C74.7617 36.3484 73.6712 37.6984 72.3212 38.7889C69.7249 40.8659 65.7266 42.0602 63.1303 42.0602C58.8724 42.0602 52.9529 40.814 50.8239 36.5561C50.4605 35.8291 50.3047 34.9983 50.3047 34.1675C50.3047 32.7655 50.772 31.4154 52.2259 30.8962C52.2779 31 52.3817 31.1558 52.5375 31.3116C53.2644 29.7019 54.0433 27.7806 54.7184 25.5997C55.4453 23.315 56.1204 20.8745 56.5877 18.5379C56.4319 17.8628 56.3281 17.1878 56.3281 16.5647C56.3281 16.0454 56.38 15.5781 56.5358 15.1108ZM57.107 28.6114C56.2761 31 54.978 33.4405 54.5107 34.9464C54.7703 36.0368 58.1974 38.2696 60.4302 38.2696C60.7937 38.2696 61.1052 38.2177 61.4168 38.0619C62.2995 37.5946 62.6111 36.5561 62.6111 35.3098C62.6111 33.077 61.6245 30.1173 61.0014 28.5595C60.3263 26.846 59.5475 25.1843 58.6647 23.5746C58.1974 25.2363 57.6781 26.9498 57.107 28.6114Z" fill="#312F3E"/>
<path d="M48.4998 37.8528C49.071 37.8528 49.6941 37.5413 50.3172 37.022C51.6153 35.9316 52.8615 34.0103 53.1212 32.4006C53.7443 32.5045 54.5751 33.2314 54.5751 34.5296C54.5751 34.8411 54.4712 35.3085 54.3155 35.7239C53.7962 37.1778 52.6019 38.8913 51.0961 40.0337C50.1095 40.8126 49.071 41.2799 48.2402 41.2799C46.7862 41.2799 43.0476 40.553 41.6975 36.3989C41.2821 34.9969 41.1263 33.4911 41.1263 31.9852C41.1263 30.064 41.334 28.0389 41.4898 26.0657C41.5937 24.6637 41.8014 23.0021 41.8014 21.652C41.8014 20.1462 41.5417 19.0557 40.659 19.0557C40.1917 19.0557 39.5166 19.8346 38.7897 21.1328C37.855 22.8463 36.7646 25.4426 35.8299 28.1946C34.0645 33.1276 32.5586 38.6317 32.5586 40.1895V40.5529C32.5586 41.0722 32.299 41.2799 31.9355 41.2799C30.7412 41.2799 28.1969 38.9952 27.6257 35.4642C27.4699 34.5815 27.418 33.6988 27.418 32.816C27.418 31.1544 27.6257 28.5062 27.8334 26.1695C28.0411 23.3136 28.3007 20.3019 28.3007 18.0691C28.3007 16.9787 28.2488 16.096 28.1449 15.369C28.4046 15.3171 28.7161 15.2652 29.0277 15.2652C30.5854 15.2652 32.299 16.3037 33.1298 18.2249C33.4413 18.9 33.4933 20.1462 33.4933 21.4962C33.4933 24.3521 32.974 27.6754 32.974 29.4928C32.974 29.4409 33.0259 29.3889 33.0259 29.2851C33.2856 28.2985 34.1683 24.9233 35.4664 21.7559C36.5569 19.1077 37.6993 16.6671 38.7378 15.9402C39.5166 15.369 40.3994 15.1094 41.334 15.1094C43.8784 15.1094 46.6305 17.0306 47.3055 19.2115C47.5651 20.0942 47.669 21.2366 47.669 22.4828C47.669 24.3521 47.4613 26.4811 47.3055 28.3504C47.2536 29.2332 46.942 31.7256 46.942 33.9065C46.942 35.5681 46.9939 37.8528 48.4998 37.8528Z" fill="#312F3E"/>
<path d="M9.65817 30.5842C6.64648 31.3112 5.40027 33.3363 5.40027 35.3095C5.40027 37.8019 7.94463 39.827 10.6967 39.827C11.6833 39.827 12.9814 39.5154 13.968 38.8404C16.6681 37.023 17.447 32.3497 17.7586 27.1571C17.8105 26.3782 17.8105 25.3916 17.8105 24.4051C17.8105 22.8992 17.7586 20.6664 17.7067 18.9009C17.6547 16.772 17.6028 14.5392 17.6028 12.4102C17.6028 9.65817 17.7586 6.64648 18.3298 3.42709C15.3181 6.59456 11.6313 11.164 11.6313 16.1489C11.6313 18.5375 13.3449 20.0433 14.4873 22.328C14.643 22.6396 14.695 22.8992 14.695 23.2108C14.695 25.0801 12.2545 27.0013 11.164 27.4687C8.93121 26.0667 6.54263 23.4704 6.54263 19.3163C6.54263 15.7854 8.04848 12.0987 9.9178 8.77544C11.9429 5.19256 14.3834 2.49243 15.9412 1.29814C17.1355 0.363478 19.0567 0 20.8741 0C23.1588 0 25.3916 0.519256 25.3916 1.24622C25.3916 1.35007 25.3397 1.40199 25.2878 1.50584C24.0416 3.32324 23.73 7.32152 23.73 11.6833C23.73 16.5643 24.1454 21.4453 24.1454 26.6898C24.1454 32.3497 22.1723 37.3346 18.3298 40.6059C16.3566 42.3194 12.6699 43.4099 9.34662 43.4099C6.33493 43.4099 3.32324 42.5271 1.50584 40.5539C0.415405 39.4116 0 38.0615 0 36.6595C0 33.0247 3.01169 29.338 7.00996 29.338C7.32152 29.338 9.34662 29.3899 9.65817 30.5842Z" fill="#312F3E"/>
<path d="M205.17 44.8192C204.807 44.9231 204.443 44.975 204.028 44.975C201.536 44.975 198.784 42.9499 198.005 39.9902C197.589 38.3805 197.434 36.7708 197.434 35.0572C197.434 32.5129 197.745 29.9685 197.745 27.1645C197.745 26.7491 197.745 25.6068 197.485 24.6202C197.278 23.8413 196.966 23.2182 196.395 23.2182C196.032 23.2182 195.512 23.7374 194.993 24.6721C194.006 26.3856 192.864 29.2935 191.877 32.409C190.424 36.9265 189.229 41.7556 189.229 43.573V43.8846C188.71 44.0404 188.139 44.1442 187.516 44.1442C185.854 44.1442 184.089 43.4173 183.621 41.6518C183.517 41.1845 183.466 40.6652 183.466 40.0421C183.466 38.2247 183.829 35.7323 183.933 32.7206C183.985 31.5782 183.985 30.332 183.985 29.1896C183.985 26.0222 183.777 23.322 182.687 23.322C181.596 23.322 179.779 27.8396 178.273 32.7725C176.923 37.2381 175.832 42.0153 175.832 44.0923C175.573 44.1961 175.313 44.2481 174.95 44.2481C173.132 44.2481 170.224 42.7941 170.069 40.821C170.017 40.094 169.965 39.0555 169.965 37.8612C169.965 35.5246 170.069 32.6167 170.224 30.3839C170.38 27.528 170.64 25.399 170.64 23.2182C170.64 22.1277 170.588 21.0373 170.38 19.843C170.692 19.7392 171.055 19.6872 171.419 19.6872C172.925 19.6872 174.742 20.4661 175.469 22.0239C175.781 22.6989 176.04 24.1528 176.04 26.126C176.04 26.5933 176.04 27.1126 175.677 33.136C175.832 32.409 176.923 27.9434 178.325 24.3605C179.208 22.0758 180.246 19.2199 183.31 19.2199C185.594 19.2199 187.827 20.9334 188.658 22.9585C189.385 24.724 189.541 26.6972 189.541 28.6184C189.541 29.7608 189.489 30.8512 189.437 32.409C190.32 28.8781 191.41 26.3856 192.397 23.7894C193.279 21.4008 194.889 19.168 197.226 19.168C199.407 19.168 202.263 20.3623 203.301 23.7894C203.561 24.7759 203.665 25.8145 203.665 26.9568C203.665 28.5146 203.509 30.1762 203.405 31.8898C203.353 32.9283 203.145 35.1611 203.145 37.1862C203.145 39.1074 203.301 40.8729 204.028 41.3402C204.288 41.5479 204.547 41.5999 204.859 41.5999C205.638 41.5999 206.417 40.9767 207.144 40.094C208.234 38.7439 209.169 36.8746 209.428 35.94C210 36.0438 210.726 36.7708 210.726 38.0689C210.726 38.4324 210.675 38.7959 210.571 39.2113C209.844 41.7556 207.144 44.2481 205.17 44.8192Z" fill="#7F2B34"/>
<path d="M159.701 40.6146C158.974 38.4337 158.922 36.6163 158.922 34.6431C158.922 32.1507 159.182 29.3986 159.389 26.5946C159.649 23.6868 160.012 20.6751 160.012 17.6634H160.428C161.882 17.6634 163.959 18.3904 165.101 20.8309C165.568 21.8694 165.724 23.0637 165.724 24.4138C165.724 25.7638 165.568 27.2697 165.465 28.8794C165.257 31.5276 164.945 34.1758 164.945 36.9798C164.945 38.5375 164.997 39.9395 165.568 40.6665C165.828 41.03 166.243 41.1857 166.763 41.1857C167.282 41.1857 168.009 40.7184 168.528 40.1992C169.878 38.9529 170.917 36.7721 171.072 36.0451C171.696 36.0451 172.474 36.9278 172.474 37.8106C172.474 38.6414 172.111 39.8357 171.592 40.7703C170.138 43.3666 168.113 44.8725 165.88 44.8725C162.661 44.8725 160.48 42.8993 159.701 40.6146ZM162.089 7.58984C163.128 7.58984 164.322 8.00525 165.361 8.68028C166.607 9.45917 167.542 10.6535 167.542 12.1074C167.542 13.5613 166.036 14.2363 164.634 14.2363C163.076 14.2363 161.31 13.4055 160.168 12.1593C159.493 11.3804 159.13 10.5496 159.13 9.82265C159.13 9.35532 159.285 8.93991 159.545 8.57643C160.012 7.95332 160.895 7.58984 162.089 7.58984Z" fill="#7F2B34"/>
<path d="M147.549 38.382C147.549 40.511 147.601 42.3284 147.757 44.3535C147.393 44.5612 146.978 44.6131 146.562 44.6131C144.901 44.6131 143.135 43.2111 142.616 41.8091C141.993 40.2513 141.785 36.6685 141.785 32.8779C141.785 30.7489 141.837 27.893 141.889 25.8679C141.941 24.2063 141.993 22.7005 141.993 21.5062C141.993 20.4157 141.889 19.5849 141.785 19.0137C142.149 18.9099 142.512 18.858 142.876 18.858C144.381 18.858 145.732 19.7926 146.562 21.1427C147.601 22.7005 147.705 24.8294 147.705 27.0103V29.0354C148.172 27.4776 148.743 26.0237 149.262 25.0371C149.211 24.6736 149.159 24.2582 149.159 23.8947C149.159 23.3755 149.211 22.7005 149.366 22.0254C149.73 20.5196 150.301 19.3772 151.08 18.7541C151.391 18.4945 151.755 18.3906 152.17 18.3906C153.832 18.3906 156.065 20.1561 156.065 22.2331C156.065 23.6351 153.936 26.0756 153.936 26.0756C153.936 26.0756 154.87 28.7758 157.363 29.295C157.519 29.3469 157.726 29.3469 157.882 29.3469C159.544 29.3469 161.101 27.893 161.517 26.2314C162.4 26.3352 162.971 27.1141 162.971 28.3604C162.971 31.0086 160.53 32.6183 157.571 32.6183C154.663 32.6183 152.118 31.2163 150.716 29.0873C150.041 30.1778 149.366 31.6317 148.795 33.1375C148.068 35.0068 147.549 37.0319 147.549 38.382Z" fill="#7F2B34"/>
<path d="M127.461 51.986C129.123 50.8436 129.694 48.6627 129.953 46.4299L129.019 46.8973C126.942 47.9358 124.968 48.8185 123.93 49.5974C123.515 49.909 123.047 50.3244 123.047 50.8955C123.047 51.9341 124.034 52.7129 125.332 52.7129C126.007 52.7129 126.734 52.4533 127.461 51.986ZM142.779 38.9007C141.429 40.4066 138.885 42.224 135.977 43.6779C135.561 47.9358 134.834 51.5187 131.459 54.063C130.005 55.1534 127.928 55.6208 125.955 55.6208C121.853 55.6208 117.803 53.6995 117.803 50.7398C117.803 48.2993 121.645 46.5857 125.747 44.8202C128.603 43.6259 130.369 42.7432 130.369 42.7432C130.576 40.3027 130.836 35.9929 130.836 34.2274C129.123 38.8488 125.488 42.0682 121.697 42.0682C120.295 42.0682 118.737 41.6528 117.335 40.5623C115.466 39.2123 114.064 37.1872 113.026 34.6947C111.779 31.735 111.156 28.204 111.156 24.6212C111.156 19.2209 112.662 13.561 115.726 9.40694C118.478 5.61637 122.268 4.05859 125.799 4.05859C129.226 4.05859 131.459 4.99326 134.107 7.64146C135.302 8.83576 136.081 10.8609 136.081 12.7821C136.081 14.1322 135.665 15.5861 134.575 16.8323C133.64 17.8708 132.342 18.2862 131.2 18.2862C129.798 18.2862 128.863 17.767 128.292 16.9881C129.226 15.6899 129.849 13.561 129.849 11.7436C129.849 9.77042 128.967 8.00495 127.201 7.48569C126.786 7.32991 126.319 7.27799 125.903 7.27799C123.878 7.27799 122.164 8.88768 120.866 11.5878C119.257 14.9111 118.322 19.844 118.322 25.4C118.322 33.9678 120.814 38.018 123.878 38.018C125.695 38.018 127.669 35.941 129.071 33.0331C130.161 30.7484 130.888 27.8405 130.888 24.8808C130.888 23.4269 133.796 21.4018 135.561 21.4018C136.081 21.4018 136.652 21.7133 136.704 22.3884C136.808 23.6865 136.808 25.7116 136.808 27.9444C136.808 31.8908 136.652 36.5121 136.34 39.368C138.988 37.7064 141.377 36.0448 142.208 35.0582C143.039 35.5255 143.454 36.2525 143.454 37.0833C143.454 37.7064 143.298 38.3815 142.779 38.9007Z" fill="#7F2B34"/>
</svg>
